<?xml version="1.0" encoding="utf-8"?>
<!-- Generator: Adobe Illustrator 23.0.6, SVG Export Plug-In . SVG Version: 6.00 Build 0)  -->
<svg version="1.1" id="katman_1" xmlns="http://www.w3.org/2000/svg" xmlns:xlink="http://www.w3.org/1999/xlink" x="0px" y="0px"
	 viewBox="0 0 500 500" style="enable-background:new 0 0 500 500;" xml:space="preserve">
<style type="text/css">
	.st0{fill:#EBC8B2;}
	.st1{fill:#29A8C7;}
	.st2{fill:#5BB56A;}
	.st3{display:none;fill:#F9AD0C;}
</style>
<g>
	<path class="st0" d="M326.8,69.07c0,0,22.53,50,3.85,110.44c0,0-15.93,57.14-71.43,65.93c0,0-68.13,6.59-93.41-72.53
		c0,0-21.98-101.1,37.91-133.52C203.73,39.4,294.93,11.37,326.8,69.07z"/>
	<path class="st1" d="M201.05,253.58c0,0,17.39,18.33,45.73,18.52c0,0,29.29,3.97,51.78-18.52c0,0,82.96,9.26,102.99,53.86
		c0,0,13.61,24.57,15.12,113.39c0,0-27.59,42.71-141.35,47.62c0,0-77.86,6.8-151.18-18.9c0,0-19.28-7.18-40.44-28.72
		c0,0-0.38-86.55,14.74-113.76C98.43,307.06,117.33,263.22,201.05,253.58z"/>
</g>
<path class="st2" d="M324.19,400.52c0.81-1.6,2.03-3.58,3.86-5.56c3.48-3.75,7.38-5.52,9.66-6.35h53.1v-56.13
	c0,0,3.1-11.35,21.11-8.23c0,0,20.28-4.24,21.98,14.46v50.46l54.43,0.57c0,0,11.33,4.54,11.33,18.71c0,0,3.41,23.81-11.33,24.38
	H433.9l-0.57,55.56c0,0-1.7,11.33-17.01,11.33c0,0-23.81,2.84-26.65-9.63l0.57-56.13l-52.53-1.13
	C337.72,432.83,321.07,439.63,324.19,400.52z"/>
<path class="st3" d="M491.93,366.57l-20.69,20.83l-20.13-4.11l-3.4-20.22l20.22-20.6c0,0-14.36-17.01-39.31,4.16
	c0,0-13.53,15.69-12.06,30.99c0,0-0.11,3.4,3.5,13.39c0,0,1.49,3.19-2.98,6.87l-79.94,75.26c0,0-4.82,7.51-1.84,14.88
	c0,0,2.13,8.5,10.77,11.2c0,0,8.93,2.69,15.17-1.98l76.96-81.35c0,0,2.55-3.4,6.24-0.99c0,0,9.35,3.8,16.44,3.11
	c0,0,16.93-1.9,25.2-11.09c0.15-0.17,0.31-0.35,0.46-0.52c8.08-9.64,8.65-8.36,12.19-22.96
	C498.74,383.43,501.01,375.5,491.93,366.57z M352.21,488.17c-3.33,0-6.02-2.7-6.02-6.02c0-3.33,2.7-6.02,6.02-6.02
	c3.33,0,6.02,2.7,6.02,6.02C358.24,485.48,355.54,488.17,352.21,488.17z"/>
</svg>
