<?xml version="1.0" encoding="utf-8"?>
<!-- Generator: Adobe Illustrator 23.0.6, SVG Export Plug-In . SVG Version: 6.00 Build 0)  -->
<svg version="1.1" id="katman_1" xmlns="http://www.w3.org/2000/svg" xmlns:xlink="http://www.w3.org/1999/xlink" x="0px" y="0px"
	 viewBox="0 0 1000 500" style="enable-background:new 0 0 1000 500;" xml:space="preserve">
<style type="text/css">
	.st0{fill:#EBC8B2;}
	.st1{fill:#2CA9C8;}
	.st2{fill:#FCEFC1;}
	.st3{fill:#AC9D67;}
	.st4{fill:#ECDC9D;}
	.st5{fill:#E74C3D;}
	.st6{fill:#010202;}
</style>
<g>
	<path class="st0" d="M334.34,102.2c0,0,17.24,38.26,2.95,84.51c0,0-12.19,43.72-54.66,50.45c0,0-52.13,5.04-71.48-55.5
		c0,0-16.82-77.36,29.01-102.17C240.17,79.5,309.96,58.05,334.34,102.2z"/>
	<path class="st1" d="M238.12,243.39c0,0,13.31,14.03,34.99,14.17c0,0,22.41,3.04,39.62-14.17c0,0,63.48,7.09,78.81,41.21
		c0,0,10.41,18.8,11.57,86.77c0,0-21.11,32.68-108.16,36.44c0,0-59.58,5.2-115.68-14.46c0,0-14.75-5.49-30.94-21.98
		c0,0-0.29-66.23,11.28-87.05C159.59,284.31,174.06,250.77,238.12,243.39z"/>
</g>
<g>
	<g>
		<path class="st2" d="M545.91,146.56l0.05,198.14l110.89,0.71c0,0,15.86,1.84,22.52,13.03c0,0,1.79,2.97,4.44,11.9V167.53
			c0,0-1.89-15.58-25.68-19.26L545.91,146.56z"/>
		<path class="st3" d="M565.78,183.96c0,0,69.96-6.8,84.13,0c0,0,13.88,3.12,19.26,18.41c0,0-10.2-13.6-18.69-13.03
			c0,0-11.47-2.55-35.62-1.13C614.86,188.21,571.73,186.51,565.78,183.96z"/>
		<path class="st3" d="M565.78,213.17c0,0,69.96-6.8,84.13,0c0,0,13.88,3.12,19.26,18.41c0,0-10.2-13.6-18.69-13.03
			c0,0-11.47-2.55-35.62-1.13C614.86,217.41,571.73,215.71,565.78,213.17z"/>
		<path class="st3" d="M565.78,242.37c0,0,69.96-6.8,84.13,0c0,0,13.88,3.12,19.26,18.41c0,0-10.2-13.6-18.69-13.03
			c0,0-11.47-2.55-35.62-1.13C614.86,246.62,571.73,244.92,565.78,242.37z"/>
		<path class="st3" d="M565.78,271.58c0,0,69.96-6.8,84.13,0c0,0,13.88,3.12,19.26,18.41c0,0-10.2-13.6-18.69-13.03
			c0,0-11.47-2.55-35.62-1.13C614.86,275.83,571.73,274.13,565.78,271.58z"/>
		<path class="st3" d="M565.78,300.78c0,0,69.96-6.8,84.13,0c0,0,13.88,3.12,19.26,18.41c0,0-10.2-13.6-18.69-13.03
			c0,0-11.47-2.55-35.62-1.13C614.86,305.03,571.73,303.33,565.78,300.78z"/>
	</g>
	<g>
		<path class="st4" d="M824.9,144.63l-0.05,203.63l-113.46,0.73c0,0-16.23,1.89-23.04,13.39c0,0-1.84,3.06-4.54,12.23V166.17
			c0,0,1.93-16.01,26.28-19.79L824.9,144.63z"/>
		<path class="st3" d="M804.56,183.06c0,0-71.59-6.99-86.08,0c0,0-14.2,3.2-19.71,18.92c0,0,10.43-13.97,19.13-13.39
			c0,0,11.74-2.62,36.45-1.16C754.35,187.42,798.48,185.68,804.56,183.06z"/>
		<path class="st3" d="M804.56,213.07c0,0-71.59-6.99-86.08,0c0,0-14.2,3.2-19.71,18.92c0,0,10.43-13.97,19.13-13.39
			c0,0,11.74-2.62,36.45-1.16C754.35,217.44,798.48,215.69,804.56,213.07z"/>
		<path class="st3" d="M804.56,243.09c0,0-71.59-6.99-86.08,0c0,0-14.2,3.2-19.71,18.92c0,0,10.43-13.97,19.13-13.39
			c0,0,11.74-2.62,36.45-1.16C754.35,247.45,798.48,245.71,804.56,243.09z"/>
		<path class="st3" d="M804.56,273.1c0,0-71.59-6.99-86.08,0c0,0-14.2,3.2-19.71,18.92c0,0,10.43-13.97,19.13-13.39
			c0,0,11.74-2.62,36.45-1.16C754.35,277.47,798.48,275.72,804.56,273.1z"/>
		<path class="st3" d="M804.56,303.12c0,0-71.59-6.99-86.08,0c0,0-14.2,3.2-19.71,18.92c0,0,10.43-13.97,19.13-13.39
			c0,0,11.74-2.62,36.45-1.16C754.35,307.48,798.48,305.74,804.56,303.12z"/>
	</g>
	<g>
		<path class="st5" d="M519.68,172.07h26.23v171.62h106.42c0,0,26.23,1.5,32.98,26.23c0,0-0.75,12.74-19.49,13.49
			c0,0,8.24-3.75-17.99-8.99l-128.15,0.75V172.07z"/>
		<path class="st5" d="M851.68,172.07h-26.35v171.62h-106.9c0,0-26.35,1.5-33.12,26.23c0,0,0.75,12.74,19.57,13.49
			c0,0-8.28-3.75,18.07-8.99l128.73,0.75V172.07z"/>
	</g>
</g>
<path class="st6" d="M345.78,370.38c0,0,8.45-1.5,8.22,14.64c0,0-1.71,36.24,17.19,48.67c0,0,26.09,23.83,73.22-0.08
	c0,0,34.48-16.91,44.5-28.43l-8.19-16.43l72.95,1.49l-37.59,64.2l-8.28-14.82c0,0-58.29,44.31-106.7,35.51c0,0-37.1-5.65-54.28-33.5
	c0,0-17.54-27.74-9.96-57.51C336.86,384.12,339.66,371.72,345.78,370.38z"/>
<path class="st6" d="M561.55,180.94c0,0-8.58,0-5.49-15.65c0,0,8.12-34.94-8.27-50.28c0,0-21.44-27.66-72.06-12.52
	c0,0-36.93,10.51-48.83,19.98l5.14,17.39l-71.51-14l48.38-55.96l5.52,15.83c0,0,65.22-33.06,111.28-16.17
	c0,0,35.49,11.88,47.46,41.91c0,0,12.34,29.98-0.41,57.63C572.76,169.11,567.81,180.68,561.55,180.94z"/>
</svg>
